<mxfile host="Electron" modified="2023-08-14T05:50:01.014Z" agent="Mozilla/5.0 (Windows NT 10.0; Win64; x64) AppleWebKit/537.36 (KHTML, like Gecko) draw.io/21.6.8 Chrome/114.0.5735.289 Electron/25.5.0 Safari/537.36" etag="QkLncapZ7V53zjzPhtPG" version="21.6.8" type="device">
  <diagram id="C5RBs43oDa-KdzZeNtuy" name="Page-1">
    <mxGraphModel dx="780" dy="542" grid="1" gridSize="10" guides="1" tooltips="1" connect="1" arrows="1" fold="1" page="1" pageScale="1" pageWidth="827" pageHeight="1169" math="0" shadow="0">
      <root>
        <mxCell id="WIyWlLk6GJQsqaUBKTNV-0" />
        <mxCell id="WIyWlLk6GJQsqaUBKTNV-1" parent="WIyWlLk6GJQsqaUBKTNV-0" />
        <mxCell id="sG4sw3OlcYv7NpaMzdil-11" value="" style="edgeStyle=orthogonalEdgeStyle;rounded=0;orthogonalLoop=1;jettySize=auto;html=1;" parent="WIyWlLk6GJQsqaUBKTNV-1" source="WIyWlLk6GJQsqaUBKTNV-3" target="sG4sw3OlcYv7NpaMzdil-1" edge="1">
          <mxGeometry relative="1" as="geometry" />
        </mxCell>
        <mxCell id="WIyWlLk6GJQsqaUBKTNV-3" value="Welcome screen" style="rounded=1;whiteSpace=wrap;html=1;fontSize=12;glass=0;strokeWidth=1;shadow=0;" parent="WIyWlLk6GJQsqaUBKTNV-1" vertex="1">
          <mxGeometry x="320" y="91" width="120" height="30" as="geometry" />
        </mxCell>
        <mxCell id="sG4sw3OlcYv7NpaMzdil-3" value="" style="edgeStyle=orthogonalEdgeStyle;rounded=0;orthogonalLoop=1;jettySize=auto;html=1;entryX=0.5;entryY=0;entryDx=0;entryDy=0;" parent="WIyWlLk6GJQsqaUBKTNV-1" source="sG4sw3OlcYv7NpaMzdil-1" target="sG4sw3OlcYv7NpaMzdil-42" edge="1">
          <mxGeometry relative="1" as="geometry">
            <mxPoint x="514.9411764705881" y="296" as="targetPoint" />
          </mxGeometry>
        </mxCell>
        <mxCell id="sG4sw3OlcYv7NpaMzdil-23" value="Custom paragraph" style="edgeLabel;html=1;align=center;verticalAlign=middle;resizable=0;points=[];" parent="sG4sw3OlcYv7NpaMzdil-3" vertex="1" connectable="0">
          <mxGeometry x="0.1752" y="-2" relative="1" as="geometry">
            <mxPoint x="2" y="22" as="offset" />
          </mxGeometry>
        </mxCell>
        <mxCell id="sG4sw3OlcYv7NpaMzdil-9" value="" style="edgeStyle=orthogonalEdgeStyle;rounded=0;orthogonalLoop=1;jettySize=auto;html=1;" parent="WIyWlLk6GJQsqaUBKTNV-1" source="sG4sw3OlcYv7NpaMzdil-1" target="sG4sw3OlcYv7NpaMzdil-10" edge="1">
          <mxGeometry relative="1" as="geometry">
            <mxPoint x="160" y="201" as="targetPoint" />
            <Array as="points">
              <mxPoint x="250" y="201" />
            </Array>
          </mxGeometry>
        </mxCell>
        <mxCell id="sG4sw3OlcYv7NpaMzdil-1" value="ask the type fo game" style="rhombus;whiteSpace=wrap;html=1;" parent="WIyWlLk6GJQsqaUBKTNV-1" vertex="1">
          <mxGeometry x="335" y="161" width="90" height="80" as="geometry" />
        </mxCell>
        <mxCell id="sG4sw3OlcYv7NpaMzdil-17" value="" style="edgeStyle=orthogonalEdgeStyle;rounded=0;orthogonalLoop=1;jettySize=auto;html=1;" parent="WIyWlLk6GJQsqaUBKTNV-1" target="sG4sw3OlcYv7NpaMzdil-16" edge="1">
          <mxGeometry relative="1" as="geometry">
            <mxPoint x="514.9999999999998" y="326" as="sourcePoint" />
          </mxGeometry>
        </mxCell>
        <mxCell id="sG4sw3OlcYv7NpaMzdil-4" style="edgeStyle=orthogonalEdgeStyle;rounded=0;orthogonalLoop=1;jettySize=auto;html=1;exitX=0.5;exitY=1;exitDx=0;exitDy=0;" parent="WIyWlLk6GJQsqaUBKTNV-1" edge="1">
          <mxGeometry relative="1" as="geometry">
            <mxPoint x="514.9999999999998" y="326" as="sourcePoint" />
            <mxPoint x="514.9999999999998" y="326" as="targetPoint" />
          </mxGeometry>
        </mxCell>
        <mxCell id="sG4sw3OlcYv7NpaMzdil-13" value="From a category" style="edgeStyle=orthogonalEdgeStyle;rounded=0;orthogonalLoop=1;jettySize=auto;html=1;" parent="WIyWlLk6GJQsqaUBKTNV-1" source="sG4sw3OlcYv7NpaMzdil-10" target="sG4sw3OlcYv7NpaMzdil-12" edge="1">
          <mxGeometry x="0.4837" relative="1" as="geometry">
            <mxPoint as="offset" />
          </mxGeometry>
        </mxCell>
        <mxCell id="sG4sw3OlcYv7NpaMzdil-15" value="Random Words" style="edgeStyle=orthogonalEdgeStyle;rounded=0;orthogonalLoop=1;jettySize=auto;html=1;" parent="WIyWlLk6GJQsqaUBKTNV-1" source="sG4sw3OlcYv7NpaMzdil-10" target="sG4sw3OlcYv7NpaMzdil-14" edge="1">
          <mxGeometry x="0.2174" relative="1" as="geometry">
            <mxPoint as="offset" />
          </mxGeometry>
        </mxCell>
        <mxCell id="sG4sw3OlcYv7NpaMzdil-10" value="Random Generator" style="rhombus;whiteSpace=wrap;html=1;" parent="WIyWlLk6GJQsqaUBKTNV-1" vertex="1">
          <mxGeometry x="210" y="230" width="80" height="80" as="geometry" />
        </mxCell>
        <mxCell id="sG4sw3OlcYv7NpaMzdil-19" value="" style="edgeStyle=orthogonalEdgeStyle;rounded=0;orthogonalLoop=1;jettySize=auto;html=1;" parent="WIyWlLk6GJQsqaUBKTNV-1" source="sG4sw3OlcYv7NpaMzdil-12" target="sG4sw3OlcYv7NpaMzdil-18" edge="1">
          <mxGeometry relative="1" as="geometry" />
        </mxCell>
        <mxCell id="sG4sw3OlcYv7NpaMzdil-12" value="Select a cagegory" style="whiteSpace=wrap;html=1;" parent="WIyWlLk6GJQsqaUBKTNV-1" vertex="1">
          <mxGeometry x="305" y="330" width="120" height="50" as="geometry" />
        </mxCell>
        <mxCell id="sG4sw3OlcYv7NpaMzdil-39" style="edgeStyle=orthogonalEdgeStyle;rounded=0;orthogonalLoop=1;jettySize=auto;html=1;exitX=0.5;exitY=1;exitDx=0;exitDy=0;entryX=0;entryY=0.5;entryDx=0;entryDy=0;" parent="WIyWlLk6GJQsqaUBKTNV-1" source="sG4sw3OlcYv7NpaMzdil-14" target="sG4sw3OlcYv7NpaMzdil-37" edge="1">
          <mxGeometry relative="1" as="geometry">
            <Array as="points">
              <mxPoint x="120" y="540" />
            </Array>
          </mxGeometry>
        </mxCell>
        <mxCell id="sG4sw3OlcYv7NpaMzdil-14" value="Generate collection of N number of Random words" style="whiteSpace=wrap;html=1;" parent="WIyWlLk6GJQsqaUBKTNV-1" vertex="1">
          <mxGeometry x="60" y="370" width="120" height="50" as="geometry" />
        </mxCell>
        <mxCell id="sG4sw3OlcYv7NpaMzdil-26" style="edgeStyle=orthogonalEdgeStyle;rounded=0;orthogonalLoop=1;jettySize=auto;html=1;exitX=0.5;exitY=1;exitDx=0;exitDy=0;entryX=1;entryY=0.5;entryDx=0;entryDy=0;" parent="WIyWlLk6GJQsqaUBKTNV-1" source="sG4sw3OlcYv7NpaMzdil-16" target="sG4sw3OlcYv7NpaMzdil-24" edge="1">
          <mxGeometry relative="1" as="geometry" />
        </mxCell>
        <mxCell id="sG4sw3OlcYv7NpaMzdil-16" value="Save the input for checking accuracy" style="whiteSpace=wrap;html=1;" parent="WIyWlLk6GJQsqaUBKTNV-1" vertex="1">
          <mxGeometry x="455" y="391" width="120" height="50" as="geometry" />
        </mxCell>
        <mxCell id="sG4sw3OlcYv7NpaMzdil-52" style="edgeStyle=orthogonalEdgeStyle;rounded=0;orthogonalLoop=1;jettySize=auto;html=1;" parent="WIyWlLk6GJQsqaUBKTNV-1" source="sG4sw3OlcYv7NpaMzdil-18" target="sG4sw3OlcYv7NpaMzdil-37" edge="1">
          <mxGeometry relative="1" as="geometry">
            <Array as="points">
              <mxPoint x="365" y="540" />
            </Array>
          </mxGeometry>
        </mxCell>
        <mxCell id="sG4sw3OlcYv7NpaMzdil-18" value="Generate random paragraphs from that particular category" style="whiteSpace=wrap;html=1;" parent="WIyWlLk6GJQsqaUBKTNV-1" vertex="1">
          <mxGeometry x="305" y="420" width="120" height="60" as="geometry" />
        </mxCell>
        <mxCell id="sG4sw3OlcYv7NpaMzdil-35" style="edgeStyle=orthogonalEdgeStyle;rounded=0;orthogonalLoop=1;jettySize=auto;html=1;exitX=0.5;exitY=1;exitDx=0;exitDy=0;entryX=0.5;entryY=0;entryDx=0;entryDy=0;" parent="WIyWlLk6GJQsqaUBKTNV-1" source="sG4sw3OlcYv7NpaMzdil-24" target="sG4sw3OlcYv7NpaMzdil-33" edge="1">
          <mxGeometry relative="1" as="geometry" />
        </mxCell>
        <mxCell id="sG4sw3OlcYv7NpaMzdil-24" value="Start count down" style="rounded=0;whiteSpace=wrap;html=1;" parent="WIyWlLk6GJQsqaUBKTNV-1" vertex="1">
          <mxGeometry x="320" y="590" width="120" height="60" as="geometry" />
        </mxCell>
        <mxCell id="sG4sw3OlcYv7NpaMzdil-32" value="" style="edgeStyle=orthogonalEdgeStyle;rounded=0;orthogonalLoop=1;jettySize=auto;html=1;" parent="WIyWlLk6GJQsqaUBKTNV-1" source="sG4sw3OlcYv7NpaMzdil-29" target="sG4sw3OlcYv7NpaMzdil-31" edge="1">
          <mxGeometry relative="1" as="geometry" />
        </mxCell>
        <mxCell id="sG4sw3OlcYv7NpaMzdil-29" value="calculate the accuracy" style="whiteSpace=wrap;html=1;rounded=0;" parent="WIyWlLk6GJQsqaUBKTNV-1" vertex="1">
          <mxGeometry x="320" y="760" width="120" height="60" as="geometry" />
        </mxCell>
        <mxCell id="sG4sw3OlcYv7NpaMzdil-54" style="edgeStyle=orthogonalEdgeStyle;rounded=0;orthogonalLoop=1;jettySize=auto;html=1;exitX=0.5;exitY=1;exitDx=0;exitDy=0;entryX=0.5;entryY=0;entryDx=0;entryDy=0;" parent="WIyWlLk6GJQsqaUBKTNV-1" source="sG4sw3OlcYv7NpaMzdil-31" target="sG4sw3OlcYv7NpaMzdil-53" edge="1">
          <mxGeometry relative="1" as="geometry" />
        </mxCell>
        <mxCell id="sG4sw3OlcYv7NpaMzdil-31" value="calculate WPM" style="whiteSpace=wrap;html=1;rounded=0;" parent="WIyWlLk6GJQsqaUBKTNV-1" vertex="1">
          <mxGeometry x="320" y="850" width="120" height="60" as="geometry" />
        </mxCell>
        <mxCell id="sG4sw3OlcYv7NpaMzdil-36" style="edgeStyle=orthogonalEdgeStyle;rounded=0;orthogonalLoop=1;jettySize=auto;html=1;exitX=0.5;exitY=1;exitDx=0;exitDy=0;" parent="WIyWlLk6GJQsqaUBKTNV-1" source="sG4sw3OlcYv7NpaMzdil-33" target="sG4sw3OlcYv7NpaMzdil-29" edge="1">
          <mxGeometry relative="1" as="geometry" />
        </mxCell>
        <mxCell id="sG4sw3OlcYv7NpaMzdil-33" value="Take the inputs from the user" style="shape=parallelogram;perimeter=parallelogramPerimeter;whiteSpace=wrap;html=1;fixedSize=1;" parent="WIyWlLk6GJQsqaUBKTNV-1" vertex="1">
          <mxGeometry x="320" y="680" width="120" height="60" as="geometry" />
        </mxCell>
        <mxCell id="sG4sw3OlcYv7NpaMzdil-40" style="edgeStyle=orthogonalEdgeStyle;rounded=0;orthogonalLoop=1;jettySize=auto;html=1;exitX=0.5;exitY=1;exitDx=0;exitDy=0;entryX=0;entryY=0.5;entryDx=0;entryDy=0;" parent="WIyWlLk6GJQsqaUBKTNV-1" source="sG4sw3OlcYv7NpaMzdil-37" target="sG4sw3OlcYv7NpaMzdil-24" edge="1">
          <mxGeometry relative="1" as="geometry" />
        </mxCell>
        <mxCell id="sG4sw3OlcYv7NpaMzdil-37" value="Display the words" style="shape=parallelogram;perimeter=parallelogramPerimeter;whiteSpace=wrap;html=1;fixedSize=1;" parent="WIyWlLk6GJQsqaUBKTNV-1" vertex="1">
          <mxGeometry x="170" y="510" width="120" height="60" as="geometry" />
        </mxCell>
        <mxCell id="sG4sw3OlcYv7NpaMzdil-42" value="Take the custom pragraph from user" style="shape=parallelogram;perimeter=parallelogramPerimeter;whiteSpace=wrap;html=1;fixedSize=1;size=15;" parent="WIyWlLk6GJQsqaUBKTNV-1" vertex="1">
          <mxGeometry x="455" y="281" width="120" height="60" as="geometry" />
        </mxCell>
        <mxCell id="sG4sw3OlcYv7NpaMzdil-44" style="edgeStyle=orthogonalEdgeStyle;rounded=0;orthogonalLoop=1;jettySize=auto;html=1;exitX=0.5;exitY=1;exitDx=0;exitDy=0;entryX=0.5;entryY=0;entryDx=0;entryDy=0;" parent="WIyWlLk6GJQsqaUBKTNV-1" source="sG4sw3OlcYv7NpaMzdil-43" target="WIyWlLk6GJQsqaUBKTNV-3" edge="1">
          <mxGeometry relative="1" as="geometry" />
        </mxCell>
        <mxCell id="sG4sw3OlcYv7NpaMzdil-43" value="start" style="ellipse;whiteSpace=wrap;html=1;" parent="WIyWlLk6GJQsqaUBKTNV-1" vertex="1">
          <mxGeometry x="335" y="11" width="90" height="59" as="geometry" />
        </mxCell>
        <mxCell id="sG4sw3OlcYv7NpaMzdil-45" value="end" style="ellipse;whiteSpace=wrap;html=1;" parent="WIyWlLk6GJQsqaUBKTNV-1" vertex="1">
          <mxGeometry x="335" y="1090" width="90" height="60" as="geometry" />
        </mxCell>
        <mxCell id="sG4sw3OlcYv7NpaMzdil-48" style="edgeStyle=orthogonalEdgeStyle;rounded=0;orthogonalLoop=1;jettySize=auto;html=1;exitX=1;exitY=0.5;exitDx=0;exitDy=0;" parent="WIyWlLk6GJQsqaUBKTNV-1" source="sG4sw3OlcYv7NpaMzdil-47" target="sG4sw3OlcYv7NpaMzdil-1" edge="1">
          <mxGeometry relative="1" as="geometry">
            <Array as="points">
              <mxPoint x="660" y="1030" />
              <mxPoint x="660" y="140" />
              <mxPoint x="400" y="140" />
            </Array>
          </mxGeometry>
        </mxCell>
        <mxCell id="sG4sw3OlcYv7NpaMzdil-49" value="yes" style="edgeLabel;html=1;align=center;verticalAlign=middle;resizable=0;points=[];" parent="sG4sw3OlcYv7NpaMzdil-48" vertex="1" connectable="0">
          <mxGeometry x="0.1215" relative="1" as="geometry">
            <mxPoint x="-145" y="558" as="offset" />
          </mxGeometry>
        </mxCell>
        <mxCell id="sG4sw3OlcYv7NpaMzdil-56" style="edgeStyle=orthogonalEdgeStyle;rounded=0;orthogonalLoop=1;jettySize=auto;html=1;exitX=0.5;exitY=1;exitDx=0;exitDy=0;entryX=0.5;entryY=0;entryDx=0;entryDy=0;" parent="WIyWlLk6GJQsqaUBKTNV-1" source="sG4sw3OlcYv7NpaMzdil-47" target="sG4sw3OlcYv7NpaMzdil-45" edge="1">
          <mxGeometry relative="1" as="geometry" />
        </mxCell>
        <mxCell id="sG4sw3OlcYv7NpaMzdil-47" value="retry?" style="rhombus;whiteSpace=wrap;html=1;" parent="WIyWlLk6GJQsqaUBKTNV-1" vertex="1">
          <mxGeometry x="350" y="1000" width="60" height="60" as="geometry" />
        </mxCell>
        <mxCell id="sG4sw3OlcYv7NpaMzdil-55" style="edgeStyle=orthogonalEdgeStyle;rounded=0;orthogonalLoop=1;jettySize=auto;html=1;exitX=0.5;exitY=1;exitDx=0;exitDy=0;entryX=0.5;entryY=0;entryDx=0;entryDy=0;" parent="WIyWlLk6GJQsqaUBKTNV-1" source="sG4sw3OlcYv7NpaMzdil-53" target="sG4sw3OlcYv7NpaMzdil-47" edge="1">
          <mxGeometry relative="1" as="geometry" />
        </mxCell>
        <mxCell id="sG4sw3OlcYv7NpaMzdil-53" value="dispaly results" style="shape=parallelogram;perimeter=parallelogramPerimeter;whiteSpace=wrap;html=1;fixedSize=1;" parent="WIyWlLk6GJQsqaUBKTNV-1" vertex="1">
          <mxGeometry x="320" y="930" width="120" height="50" as="geometry" />
        </mxCell>
      </root>
    </mxGraphModel>
  </diagram>
</mxfile>
